# xmcd
#
# Track frame offsets: 
#        150
#        18481
#        42794
#        68772
#        88342
#        115569
#        135772
#        155506
#        169891
#        190008
#        216397
#        232534
#        247764
#        270211
#        293273
#        310271
#        331587
#
# Disc length: 4771 seconds
#
# Revision: 1
# Processed by: cddbd v1.5.2PL0 Copyright (c) Steve Scherf et al.
# Submitted via: ExactAudioCopy v1.0b3
#
DISCID=cb12a111
DTITLE=Various Artist - Akella Presents - vol.63 - Blues-Rock  CD1
DYEAR=2016
DGENRE=Blues-Rock
TTITLE0=Sean Chambers - Money In A Minute
TTITLE1=Michael Katon - Every Girl I See
TTITLE2=Liquid Groove Mojo - If Heartaches Were Nickels
TTITLE3=Craig Erickson - River Song
TTITLE4=Ryan McGarvey - Blues Knockin' At My Door
TTITLE5=Hardbone - A Girl Like You
TTITLE6=Dudley Taft - Devils Crown
TTITLE7=Tony Spinner - She Gave Me Back My Mojo
TTITLE8=The Buddaheads - Road To Ruin
TTITLE9=Mike Onesko's Guitar Army - Nothing Can Hold Me Down
TTITLE10=Paul Diannoof - Killers  Sleeping
TTITLE11=Martin J. Andersen - Never Ending Climb
TTITLE12=Dirty Basement Blues - Nail Driver
TTITLE13=The Boogie - Bad Girl
TTITLE14=Black Mountain Prophet - Poor Ole Broken Heart
TTITLE15=Kamchatka - Long Road
TTITLE16=Walter Trout - You Can't Go Home Again
EXTD=
EXTT0=
EXTT1=
EXTT2=
EXTT3=
EXTT4=
EXTT5=
EXTT6=
EXTT7=
EXTT8=
EXTT9=
EXTT10=
EXTT11=
EXTT12=
EXTT13=
EXTT14=
EXTT15=
EXTT16=
PLAYORDER=
